<?xml version="1.0" standalone="no"?>
<!DOCTYPE svg PUBLIC "-//W3C//DTD SVG 20010904//EN"
 "http://www.w3.org/TR/2001/REC-SVG-20010904/DTD/svg10.dtd">
<svg version="1.0" xmlns="http://www.w3.org/2000/svg"
 width="1584.000000pt" height="1584.000000pt" viewBox="0 0 1584.000000 1584.000000"
 preserveAspectRatio="xMidYMid meet">

<g transform="translate(0.000000,1584.000000) scale(0.100000,-0.100000)"
fill="#000000" stroke="none">
<path d="M6490 7095 l0 -55 -55 0 -55 0 0 -55 0 -55 -165 0 -165 0 0 -55 0
-55 -110 0 -110 0 0 -55 0 -55 -110 0 -110 0 0 -55 0 -55 -55 0 -55 0 0 -825
0 -825 55 0 55 0 0 -55 0 -55 110 0 110 0 0 -55 0 -55 110 0 110 0 0 -55 0
-55 165 0 165 0 0 -55 0 -55 55 0 55 0 0 -55 0 -55 440 0 440 0 0 55 0 55 55
0 55 0 0 55 0 55 1155 0 1155 0 0 -55 0 -55 55 0 55 0 0 -55 0 -55 440 0 440
0 0 55 0 55 55 0 55 0 0 55 0 55 330 0 330 0 0 110 0 110 110 0 110 0 0 55 0
55 55 0 55 0 0 55 0 55 55 0 55 0 0 715 0 715 -55 0 -55 0 0 55 0 55 -110 0
-110 0 0 55 0 55 -55 0 -55 0 0 110 0 110 -330 0 -330 0 0 55 0 55 -55 0 -55
0 0 55 0 55 -440 0 -440 0 0 -55 0 -55 -55 0 -55 0 0 -55 0 -55 -1155 0 -1155
0 0 55 0 55 -55 0 -55 0 0 55 0 55 -440 0 -440 0 0 -55z m4840 -495 l0 -110
55 0 55 0 0 -55 0 -55 55 0 55 0 0 -55 0 -55 -110 0 -110 0 0 55 0 55 -55 0
-55 0 0 55 0 55 -55 0 -55 0 0 110 0 110 110 0 110 0 0 -110z m-3850 -825 l0
-715 -55 0 -55 0 0 55 0 55 -110 0 -110 0 0 55 0 55 -55 0 -55 0 0 55 0 55
-55 0 -55 0 0 440 0 440 55 0 55 0 0 55 0 55 110 0 110 0 0 55 0 55 110 0 110
0 0 -715z m2200 660 l0 -55 220 0 220 0 0 -55 0 -55 55 0 55 0 0 -495 0 -495
-55 0 -55 0 0 -55 0 -55 -220 0 -220 0 0 -55 0 -55 -110 0 -110 0 0 715 0 715
110 0 110 0 0 -55z m1870 -1210 l0 -55 -55 0 -55 0 0 -55 0 -55 -55 0 -55 0 0
-110 0 -110 -110 0 -110 0 0 110 0 110 55 0 55 0 0 55 0 55 55 0 55 0 0 55 0
55 110 0 110 0 0 -55z"/>
</g>
</svg>
